<svg width="503" height="502" viewBox="0 0 503 502" fill="none" xmlns="http://www.w3.org/2000/svg">
    <rect width="503" height="502" fill="#F5F5F5"/>
    <path d="M502.059 253.061C502.645 252.475 502.645 251.525 502.059 250.939L492.513 241.393C491.927 240.808 490.977 240.808 490.392 241.393C489.806 241.979 489.806 242.929 490.392 243.515L498.877 252L490.392 260.485C489.806 261.071 489.806 262.021 490.392 262.607C490.977 263.192 491.927 263.192 492.513 262.607L502.059 253.061ZM0.99826 253.5H500.998V250.5H0.99826V253.5Z" fill="black"/>
    <path d="M252.061 0.939941C251.475 0.354156 250.525 0.354156 249.939 0.939941L240.393 10.4859C239.808 11.0717 239.808 12.0214 240.393 12.6072C240.979 13.193 241.929 13.193 242.515 12.6072L251 4.12192L259.485 12.6072C260.071 13.193 261.021 13.193 261.607 12.6072C262.192 12.0214 262.192 11.0717 261.607 10.4859L252.061 0.939941ZM252.5 502.001V2.00061H249.5V502.001H252.5Z" fill="black"/>
    <line x1="151" y1="242" x2="151" y2="262" stroke="black" stroke-width="5"/>
    <line x1="241" y1="352" x2="261" y2="352" stroke="black" stroke-width="5"/>
    <line x1="241" y1="52" x2="261" y2="52" stroke="black" stroke-width="5"/>
    <line x1="241" y1="152" x2="261" y2="152" stroke="black" stroke-width="5"/>
    <line x1="241" y1="452" x2="261" y2="452" stroke="black" stroke-width="5"/>
    <line x1="451" y1="242" x2="451" y2="262" stroke="black" stroke-width="5"/>
    <line x1="351" y1="242" x2="351" y2="262" stroke="black" stroke-width="5"/>
    <line x1="51" y1="242" x2="51" y2="262" stroke="black" stroke-width="5"/>
    <path d="M136.403 272.222V274.142H131.097V272.222H136.403ZM138.511 279V267.364H143.102C143.981 267.364 144.731 267.521 145.352 267.835C145.977 268.146 146.453 268.587 146.778 269.159C147.108 269.727 147.273 270.396 147.273 271.165C147.273 271.937 147.106 272.602 146.773 273.159C146.439 273.712 145.956 274.136 145.324 274.432C144.695 274.727 143.934 274.875 143.04 274.875H139.966V272.898H142.642C143.112 272.898 143.502 272.833 143.812 272.705C144.123 272.576 144.354 272.383 144.506 272.125C144.661 271.867 144.739 271.547 144.739 271.165C144.739 270.778 144.661 270.453 144.506 270.188C144.354 269.922 144.121 269.722 143.807 269.585C143.496 269.445 143.104 269.375 142.631 269.375H140.972V279H138.511ZM144.795 273.705L147.688 279H144.972L142.142 273.705H144.795ZM154.034 266.818L150.284 280.75H148.199L151.949 266.818H154.034ZM155.178 279V277.227L159.32 273.392C159.672 273.051 159.967 272.744 160.206 272.472C160.448 272.199 160.632 271.932 160.757 271.67C160.882 271.405 160.945 271.119 160.945 270.812C160.945 270.472 160.867 270.178 160.712 269.932C160.556 269.682 160.344 269.491 160.075 269.358C159.806 269.222 159.501 269.153 159.161 269.153C158.804 269.153 158.494 269.225 158.229 269.369C157.964 269.513 157.759 269.72 157.615 269.989C157.471 270.258 157.399 270.578 157.399 270.949H155.064C155.064 270.187 155.236 269.527 155.581 268.966C155.926 268.405 156.409 267.972 157.03 267.665C157.651 267.358 158.367 267.205 159.178 267.205C160.011 267.205 160.736 267.352 161.354 267.648C161.975 267.939 162.458 268.345 162.803 268.864C163.147 269.383 163.32 269.977 163.32 270.648C163.32 271.087 163.232 271.521 163.058 271.949C162.888 272.377 162.583 272.852 162.143 273.375C161.704 273.894 161.085 274.517 160.286 275.244L158.587 276.909V276.989H163.473V279H155.178Z" fill="black"/>
    <g filter="url(#filter0_i_0_1)">
        <path d="M208.747 351.222V353.142H203.44V351.222H208.747ZM210.855 358V346.364H215.446C216.325 346.364 217.075 346.521 217.696 346.835C218.321 347.146 218.796 347.587 219.122 348.159C219.452 348.727 219.616 349.396 219.616 350.165C219.616 350.937 219.45 351.602 219.116 352.159C218.783 352.712 218.3 353.136 217.668 353.432C217.039 353.727 216.277 353.875 215.384 353.875H212.31V351.898H214.986C215.455 351.898 215.846 351.833 216.156 351.705C216.467 351.576 216.698 351.383 216.849 351.125C217.005 350.867 217.082 350.547 217.082 350.165C217.082 349.778 217.005 349.453 216.849 349.188C216.698 348.922 216.465 348.722 216.151 348.585C215.84 348.445 215.448 348.375 214.974 348.375H213.315V358H210.855ZM217.139 352.705L220.031 358H217.315L214.486 352.705H217.139ZM226.378 345.818L222.628 359.75H220.543L224.293 345.818H226.378ZM227.521 358V356.227L231.663 352.392C232.016 352.051 232.311 351.744 232.55 351.472C232.792 351.199 232.976 350.932 233.101 350.67C233.226 350.405 233.288 350.119 233.288 349.812C233.288 349.472 233.211 349.178 233.055 348.932C232.9 348.682 232.688 348.491 232.419 348.358C232.15 348.222 231.845 348.153 231.504 348.153C231.148 348.153 230.838 348.225 230.572 348.369C230.307 348.513 230.103 348.72 229.959 348.989C229.815 349.258 229.743 349.578 229.743 349.949H227.408C227.408 349.187 227.58 348.527 227.925 347.966C228.269 347.405 228.752 346.972 229.374 346.665C229.995 346.358 230.711 346.205 231.521 346.205C232.355 346.205 233.08 346.352 233.697 346.648C234.319 346.939 234.802 347.345 235.146 347.864C235.491 348.383 235.663 348.977 235.663 349.648C235.663 350.087 235.576 350.521 235.402 350.949C235.232 351.377 234.927 351.852 234.487 352.375C234.048 352.894 233.429 353.517 232.629 354.244L230.93 355.909V355.989H235.817V358H227.521Z" fill="black"/>
    </g>
    <path d="M210.011 158V146.364H214.602C215.481 146.364 216.231 146.521 216.852 146.835C217.477 147.146 217.953 147.587 218.278 148.159C218.608 148.727 218.773 149.396 218.773 150.165C218.773 150.937 218.606 151.602 218.273 152.159C217.939 152.712 217.456 153.136 216.824 153.432C216.195 153.727 215.434 153.875 214.54 153.875H211.466V151.898H214.142C214.612 151.898 215.002 151.833 215.312 151.705C215.623 151.576 215.854 151.383 216.006 151.125C216.161 150.867 216.239 150.547 216.239 150.165C216.239 149.778 216.161 149.453 216.006 149.188C215.854 148.922 215.621 148.722 215.307 148.585C214.996 148.445 214.604 148.375 214.131 148.375H212.472V158H210.011ZM216.295 152.705L219.188 158H216.472L213.642 152.705H216.295ZM225.534 145.818L221.784 159.75H219.699L223.449 145.818H225.534ZM226.678 158V156.227L230.82 152.392C231.172 152.051 231.467 151.744 231.706 151.472C231.948 151.199 232.132 150.932 232.257 150.67C232.382 150.405 232.445 150.119 232.445 149.812C232.445 149.472 232.367 149.178 232.212 148.932C232.056 148.682 231.844 148.491 231.575 148.358C231.306 148.222 231.001 148.153 230.661 148.153C230.304 148.153 229.994 148.225 229.729 148.369C229.464 148.513 229.259 148.72 229.115 148.989C228.971 149.258 228.899 149.578 228.899 149.949H226.564C226.564 149.187 226.736 148.527 227.081 147.966C227.426 147.405 227.909 146.972 228.53 146.665C229.151 146.358 229.867 146.205 230.678 146.205C231.511 146.205 232.236 146.352 232.854 146.648C233.475 146.939 233.958 147.345 234.303 147.864C234.647 148.383 234.82 148.977 234.82 149.648C234.82 150.087 234.732 150.521 234.558 150.949C234.388 151.377 234.083 151.852 233.643 152.375C233.204 152.894 232.585 153.517 231.786 154.244L230.087 155.909V155.989H234.973V158H226.678Z" fill="black"/>
    <path d="M337.011 279V267.364H341.602C342.481 267.364 343.231 267.521 343.852 267.835C344.477 268.146 344.953 268.587 345.278 269.159C345.608 269.727 345.773 270.396 345.773 271.165C345.773 271.937 345.606 272.602 345.273 273.159C344.939 273.712 344.456 274.136 343.824 274.432C343.195 274.727 342.434 274.875 341.54 274.875H338.466V272.898H341.142C341.612 272.898 342.002 272.833 342.312 272.705C342.623 272.576 342.854 272.383 343.006 272.125C343.161 271.867 343.239 271.547 343.239 271.165C343.239 270.778 343.161 270.453 343.006 270.188C342.854 269.922 342.621 269.722 342.307 269.585C341.996 269.445 341.604 269.375 341.131 269.375H339.472V279H337.011ZM343.295 273.705L346.188 279H343.472L340.642 273.705H343.295ZM352.534 266.818L348.784 280.75H346.699L350.449 266.818H352.534ZM353.678 279V277.227L357.82 273.392C358.172 273.051 358.467 272.744 358.706 272.472C358.948 272.199 359.132 271.932 359.257 271.67C359.382 271.405 359.445 271.119 359.445 270.812C359.445 270.472 359.367 270.178 359.212 269.932C359.056 269.682 358.844 269.491 358.575 269.358C358.306 269.222 358.001 269.153 357.661 269.153C357.304 269.153 356.994 269.225 356.729 269.369C356.464 269.513 356.259 269.72 356.115 269.989C355.971 270.258 355.899 270.578 355.899 270.949H353.564C353.564 270.187 353.736 269.527 354.081 268.966C354.426 268.405 354.909 267.972 355.53 267.665C356.151 267.358 356.867 267.205 357.678 267.205C358.511 267.205 359.236 267.352 359.854 267.648C360.475 267.939 360.958 268.345 361.303 268.864C361.647 269.383 361.82 269.977 361.82 270.648C361.82 271.087 361.732 271.521 361.558 271.949C361.388 272.377 361.083 272.852 360.643 273.375C360.204 273.894 359.585 274.517 358.786 275.244L357.087 276.909V276.989H361.973V279H353.678Z" fill="black"/>
    <path d="M227.511 58V46.3636H232.102C232.981 46.3636 233.731 46.5208 234.352 46.8352C234.977 47.1458 235.453 47.5871 235.778 48.1591C236.108 48.7273 236.273 49.3958 236.273 50.1648C236.273 50.9375 236.106 51.6023 235.773 52.1591C235.439 52.7121 234.956 53.1364 234.324 53.4318C233.695 53.7273 232.934 53.875 232.04 53.875H228.966V51.8977H231.642C232.112 51.8977 232.502 51.8333 232.812 51.7045C233.123 51.5758 233.354 51.3826 233.506 51.125C233.661 50.8674 233.739 50.5473 233.739 50.1648C233.739 49.7784 233.661 49.4527 233.506 49.1875C233.354 48.9223 233.121 48.7216 232.807 48.5852C232.496 48.4451 232.104 48.375 231.631 48.375H229.972V58H227.511ZM233.795 52.7045L236.688 58H233.972L231.142 52.7045H233.795Z" fill="black"/>
    <path d="M269.999 20.0909C269.61 20.0909 269.255 20.0601 268.933 19.9986C268.611 19.9418 268.346 19.8684 268.138 19.7784L269.203 17.5199C269.539 17.6288 269.845 17.6856 270.119 17.6903C270.399 17.6951 270.654 17.6241 270.886 17.4773C271.118 17.3305 271.331 17.089 271.526 16.7528L271.795 16.2912L269.75 5.09091H272.818L273.741 13.1165H273.855L277.47 5.09091H280.787L274.544 17.179C274.236 17.7708 273.872 18.2846 273.45 18.7202C273.034 19.1558 272.539 19.492 271.966 19.7287C271.398 19.9702 270.742 20.0909 269.999 20.0909Z" fill="black"/>
    <path d="M494.145 226.091L495.509 229.905L498.2 226.091H501.304L497.234 231.545L499.571 237H496.482L494.955 233.229L492.213 237H489.088L493.236 231.545L491.02 226.091H494.145Z" fill="black"/>
    <path d="M446.511 279V267.364H451.102C451.981 267.364 452.731 267.521 453.352 267.835C453.977 268.146 454.453 268.587 454.778 269.159C455.108 269.727 455.273 270.396 455.273 271.165C455.273 271.937 455.106 272.602 454.773 273.159C454.439 273.712 453.956 274.136 453.324 274.432C452.695 274.727 451.934 274.875 451.04 274.875H447.966V272.898H450.642C451.112 272.898 451.502 272.833 451.812 272.705C452.123 272.576 452.354 272.383 452.506 272.125C452.661 271.867 452.739 271.547 452.739 271.165C452.739 270.778 452.661 270.453 452.506 270.188C452.354 269.922 452.121 269.722 451.807 269.585C451.496 269.445 451.104 269.375 450.631 269.375H448.972V279H446.511ZM452.795 273.705L455.688 279H452.972L450.142 273.705H452.795Z" fill="black"/>
    <path d="M46.9034 272.222V274.142H41.5966V272.222H46.9034ZM49.0114 279V267.364H53.6023C54.4811 267.364 55.2311 267.521 55.8523 267.835C56.4773 268.146 56.9527 268.587 57.2784 269.159C57.608 269.727 57.7727 270.396 57.7727 271.165C57.7727 271.937 57.6061 272.602 57.2727 273.159C56.9394 273.712 56.4564 274.136 55.8239 274.432C55.1951 274.727 54.4337 274.875 53.5398 274.875H50.4659V272.898H53.142C53.6117 272.898 54.0019 272.833 54.3125 272.705C54.6231 272.576 54.8542 272.383 55.0057 272.125C55.161 271.867 55.2386 271.547 55.2386 271.165C55.2386 270.778 55.161 270.453 55.0057 270.188C54.8542 269.922 54.6212 269.722 54.3068 269.585C53.9962 269.445 53.6042 269.375 53.1307 269.375H51.4716V279H49.0114ZM55.2955 273.705L58.1875 279H55.4716L52.642 273.705H55.2955Z" fill="black"/>
    <path d="M225.403 451.222V453.142H220.097V451.222H225.403ZM227.511 458V446.364H232.102C232.981 446.364 233.731 446.521 234.352 446.835C234.977 447.146 235.453 447.587 235.778 448.159C236.108 448.727 236.273 449.396 236.273 450.165C236.273 450.937 236.106 451.602 235.773 452.159C235.439 452.712 234.956 453.136 234.324 453.432C233.695 453.727 232.934 453.875 232.04 453.875H228.966V451.898H231.642C232.112 451.898 232.502 451.833 232.812 451.705C233.123 451.576 233.354 451.383 233.506 451.125C233.661 450.867 233.739 450.547 233.739 450.165C233.739 449.778 233.661 449.453 233.506 449.188C233.354 448.922 233.121 448.722 232.807 448.585C232.496 448.445 232.104 448.375 231.631 448.375H229.972V458H227.511ZM233.795 452.705L236.688 458H233.972L231.142 452.705H233.795Z" fill="black"/>
    <g style="mix-blend-mode:darken">
        <path d="M251 252H151L251 352V252Z" fill="#3ABCD9" fill-opacity="0.7"/>
    </g>
    <g style="mix-blend-mode:darken">
        <rect x="51" y="52" width="200" height="200" fill="#3ABCD9" fill-opacity="0.7"/>
    </g>
    <g style="mix-blend-mode:darken">
        <path d="M251 452C277.264 452 303.272 446.827 327.537 436.776C351.802 426.725 373.85 411.993 392.421 393.421C410.993 374.85 425.725 352.802 435.776 328.537C445.827 304.272 451 278.264 451 252L251 252L251 452Z" fill="#3ABCD9" fill-opacity="0.7"/>
    </g>
    <defs>
        <filter id="filter0_i_0_1" x="203.44" y="345.818" width="32.3764" height="17.9318" filterUnits="userSpaceOnUse" color-interpolation-filters="sRGB">
            <feFlood flood-opacity="0" result="BackgroundImageFix"/>
            <feBlend mode="normal" in="SourceGraphic" in2="BackgroundImageFix" result="shape"/>
            <feColorMatrix in="SourceAlpha" type="matrix" values="0 0 0 0 0 0 0 0 0 0 0 0 0 0 0 0 0 0 127 0" result="hardAlpha"/>
            <feOffset dy="4"/>
            <feGaussianBlur stdDeviation="2"/>
            <feComposite in2="hardAlpha" operator="arithmetic" k2="-1" k3="1"/>
            <feColorMatrix type="matrix" values="0 0 0 0 0 0 0 0 0 0 0 0 0 0 0 0 0 0 0.25 0"/>
            <feBlend mode="normal" in2="shape" result="effect1_innerShadow_0_1"/>
        </filter>
    </defs>
</svg>